<?xml version="1.0" encoding="utf-8"?>
<!-- Generator: Adobe Illustrator 24.3.0, SVG Export Plug-In . SVG Version: 6.00 Build 0)  -->
<svg version="1.1" xmlns="http://www.w3.org/2000/svg" xmlns:xlink="http://www.w3.org/1999/xlink" x="0px" y="0px"
	 viewBox="0 0 500 500" style="enable-background:new 0 0 500 500;" xml:space="preserve">
<style type="text/css">
	.st0{display:none;}
	.st1{display:inline;}
	.st2{fill:none;stroke:#000000;stroke-width:18;stroke-linecap:round;stroke-linejoin:round;stroke-miterlimit:10;}
</style>
<g id="animation" class="st0">
	<path class="st1" d="M411.13,237.06L142.25,81.82c-4.78-2.76-10.72-2.76-15.5,0c-4.78,2.76-7.75,7.9-7.75,13.42l0,310.48
		c0,5.52,2.97,10.66,7.75,13.42c2.35,1.36,5.03,2.08,7.75,2.08s5.4-0.72,7.75-2.08l268.88-155.24c4.78-2.76,7.75-7.9,7.75-13.42
		S415.92,239.82,411.13,237.06z M372.38,250.48L150,378.88l0-256.79L372.38,250.48z"/>
</g>
<g id="dark" class="st0">
</g>
<g id="light" class="st0">
	<g class="st1">
		<path d="M250.76,86.54c-2.12,0-21.29,0.32-41.59,11.46c-19.26,10.57-42.88,32.92-46,79.43c-0.54,8,5.54,14.95,13.53,15.48
			c0.33,0.02,0.66,0.03,0.99,0.03c7.62,0,13.99-5.96,14.51-13.57c1.79-26.63,12.09-45.36,30.62-55.69
			c13.84-7.71,27.92-8.06,27.97-8.06c8-0.02,14.52-6.54,14.52-14.54C265.3,93.07,258.78,86.54,250.76,86.54z"/>
		<path d="M250.22,38.14c-76.64,0-138.99,62.35-138.99,138.99c0,26.44,7.48,52.19,21.63,74.48c13.32,20.97,31.95,37.93,54.06,49.25
			v13.96c0,11.79,9.59,21.38,21.38,21.38h85.08c11.79,0,21.38-9.59,21.38-21.38v-14.62c21.75-11.43,40.07-28.38,53.17-49.25
			c13.92-22.17,21.27-47.69,21.27-73.82C389.2,100.49,326.85,38.14,250.22,38.14z M285.76,281.64v25.55h-69.84v-25.11l-8.8-3.76
			c-40.64-17.38-66.9-57.1-66.9-101.19c0-60.65,49.34-109.99,109.99-109.99c60.65,0,109.99,49.34,109.99,109.99
			c0,43.56-25.82,83.09-65.79,100.7L285.76,281.64z"/>
	</g>
	<path class="st1" d="M294.4,351.41h-83.38c-16.4,0-29.75,13.34-29.75,29.74v19.14c0,11.58,6.73,21.75,16.56,26.65
		c3.07,18.32,19.04,32.32,38.21,32.32h29.07c18.53,0,34.07-13.08,37.86-30.49c12.23-3.69,21.16-15.06,21.16-28.48v-19.14
		C324.14,364.75,310.8,351.41,294.4,351.41z M295.06,381.16v19.14c0,0.36-0.3,0.66-0.66,0.66h-83.38c-0.36,0-0.66-0.3-0.66-0.66
		v-19.14c0-0.36,0.3-0.66,0.66-0.66h83.38C294.76,380.5,295.06,380.79,295.06,381.16z"/>
</g>
<g id="audio" class="st0">
	<path class="st1" d="M385.81,68.99c-7.46-3.96-16.43-3.48-23.39,1.24l-137.24,92.68h-74.27c-27.07,0-49.09,22.02-49.09,49.09v76.62
		c0,27.07,22.02,49.09,49.09,49.09h74.27l137.24,92.68c3.78,2.55,8.18,3.9,12.72,3.9c3.71,0,7.4-0.92,10.68-2.67
		c7.44-3.96,12.07-11.65,12.07-20.08V89.07C397.88,80.64,393.25,72.94,385.81,68.99z M245.84,313.48V187.14l120.39-81.31v288.96
		L245.84,313.48z M214.2,194.55v111.52h-63.29c-9.62,0-17.44-7.83-17.44-17.45V212c0-9.62,7.82-17.44,17.44-17.44H214.2z"/>
</g>
<g id="profile">
	<g>
		<path d="M420.79,240.39v-41.95h-41.5v-29.23H340.1v-41.94h30.55V81.51H328v45.76h-30.55v41.94H195.44v-41.94h-30.55V81.51h-42.65
			v45.76h30.55v41.94h-39.77v29.23H77.28v41.95H43.85v149.98h43.8v-86.43h25.36v77.53h23.06v33.05h77.23V367.5h-53.03v-38.13h171.76
			v38.13h-50.72v47.03h77.23v-33.05h20.75v-77.53h32.28v86.43h43.81V240.39H420.79z M187.94,267.08h-41.5v-69.91h41.5V267.08z
			 M335.49,267.08H294v-69.91h41.5V267.08z"/>
	</g>
</g>
<g id="logout" class="st0">
	<path class="st1" d="M477.58,244.56l-29.14-27.05c-0.21-0.2-0.46-0.41-0.69-0.59l-57.16-53.07c-3.64-3.38-8.94-4.29-13.5-2.3
		c-4.56,1.99-7.5,6.49-7.5,11.46v39.19H245.73c-6.9,0-12.5,5.6-12.5,12.5v58.07c0,6.9,5.6,12.5,12.5,12.5h123.86l0,39.19
		c0,4.97,2.95,9.47,7.5,11.46c1.61,0.7,3.31,1.04,4.99,1.04c3.1,0,6.15-1.15,8.51-3.34l57.24-53.14l-0.04,0.04
		c0.23-0.18,0.45-0.37,0.66-0.57l29.13-27.05c2.55-2.36,4-5.68,4-9.16C481.58,250.24,480.13,246.92,477.58,244.56z"/>
	<g class="st1">
		<path d="M323.15,421.91H88.83c-9.39,0-17-7.61-17-17V94.99c0-9.39,7.61-17,17-17h234.32c9.39,0,17,7.61,17,17v68.39
			c0,9.39-7.61,17-17,17s-17-7.61-17-17v-51.39H105.83v275.92h200.32V344c0-9.39,7.61-17,17-17s17,7.61,17,17v60.91
			C340.15,414.3,332.54,421.91,323.15,421.91z"/>
	</g>
	<g class="st1">
		<path class="st2" d="M323.15,331.41"/>
	</g>
	<g class="st1">
		<path class="st2" d="M323.15,163.38"/>
	</g>
</g>
<g id="search" class="st0">
	<path class="st1" d="M204.8,115.9c-2.15,0-21.55,0.33-42.07,11.58c-19.48,10.69-43.37,33.28-46.52,80.24
		c-0.28,4.14,1.07,8.14,3.81,11.27c2.73,3.13,6.52,5,10.65,5.28c0.35,0.02,0.71,0.04,1.06,0.04c8.15,0,14.96-6.37,15.5-14.5
		c1.76-26.27,11.89-44.73,30.11-54.88c13.33-7.43,26.92-7.92,27.57-7.94c8.51-0.06,15.43-7.02,15.43-15.54
		C220.34,122.87,213.37,115.9,204.8,115.9z"/>
	<g class="st1">
		<path d="M397.07,447.76c-0.49,0-0.97-0.01-1.46-0.04c-6.02-0.3-15.16-2.63-24.55-12.02l-61.91-61.91
			c-66.82,37.87-151.93,26.93-207-28.13c-67.26-67.26-67.26-176.7,0-243.97c67.26-67.26,176.7-67.26,243.97,0
			c55.01,55.01,65.98,140.06,28.21,206.86l61.94,61.94c9.39,9.39,11.72,18.54,12.02,24.55c0.41,8.23-2.67,16.27-8.47,22.06
			l-22.15,22.15C412.22,444.71,404.78,447.76,397.07,447.76z M313.5,332.9l80.18,80.18c1.12,1.12,2.04,1.81,2.7,2.22l19.48-19.48
			c-0.41-0.66-1.1-1.58-2.22-2.7l-80.19-80.19l7.34-10.93c37.35-55.58,30.07-130.31-17.31-177.68
			c-54.78-54.78-143.93-54.78-198.71,0c-54.79,54.78-54.79,143.93,0,198.71c47.42,47.42,122.2,54.67,177.8,17.22L313.5,332.9z"/>
	</g>
</g>
<g id="like" class="st0">
	<path class="st1" d="M431.37,173.51c-5.4-40.67-33.7-74.2-73.85-87.5c-11.51-3.81-23.3-5.75-35.06-5.75
		c-22.97,0-44.38,7.24-61.92,20.94l-10.89,8.5l-10.9-8.48c-17.53-13.64-38.9-20.85-61.82-20.85c-11.75,0-23.53,1.93-35.03,5.74
		c-40.14,13.29-68.43,46.79-73.83,87.43c-2.7,20.33-0.92,53.41,22.88,95.55c27.63,48.9,77.92,98.36,149.49,147
		c2.8,1.9,6.04,2.85,9.27,2.85c3.24,0,6.48-0.95,9.27-2.85c71.56-48.64,121.86-98.09,149.48-147
		C432.29,226.94,434.07,193.85,431.37,173.51z M379.75,252.85c-23.94,42.38-67.65,85.92-130.02,129.54
		c-62.37-43.62-106.09-87.17-130.03-129.54c-19.31-34.19-20.94-59.64-18.9-74.98c3.72-28,23.45-51.17,51.49-60.45
		c8.14-2.7,16.44-4.06,24.65-4.06c15.51,0,29.87,4.8,41.55,13.89l21.05,16.39c5.97,4.65,14.33,4.64,20.29-0.02l21.03-16.42
		c11.68-9.12,26.07-13.94,41.6-13.94c8.22,0,16.52,1.37,24.68,4.07c28.06,9.3,47.8,32.49,51.52,60.52
		C400.69,193.2,399.06,218.66,379.75,252.85z"/>
</g>
<g id="share" class="st0">
	<path class="st1" d="M353.7,304.47c-18.9,0-36.76,8.05-49.34,22.15l-94.88-54.78c2.34-6.85,3.52-14,3.52-21.28
		c0-6.12-0.84-12.17-2.5-18.03l97.13-56.08c12.43,12.11,28.71,18.75,46.08,18.75c36.47,0,66.14-29.67,66.14-66.14
		s-29.67-66.14-66.14-66.14s-66.14,29.67-66.14,66.14c0,5.69,0.74,11.35,2.19,16.86l-97.68,56.4
		c-12.32-11.56-28.29-17.91-45.21-17.91c-36.47,0-66.14,29.67-66.14,66.14c0,36.47,29.67,66.14,66.14,66.14
		c15.6,0,30.65-5.52,42.58-15.58l99.25,57.3c-0.76,4.04-1.14,8.13-1.14,12.19c0,36.47,29.67,66.14,66.14,66.14
		s66.14-29.67,66.14-66.14S390.17,304.47,353.7,304.47z M384.47,370.62c0,16.96-13.8,30.77-30.77,30.77s-30.77-13.8-30.77-30.77
		s13.8-30.77,30.77-30.77S384.47,353.65,384.47,370.62z M322.94,129.06c0-16.97,13.8-30.77,30.77-30.77s30.77,13.8,30.77,30.77
		c0,16.97-13.8,30.77-30.77,30.77S322.94,146.03,322.94,129.06z M177.63,250.56c0,16.96-13.8,30.77-30.77,30.77
		c-16.97,0-30.77-13.8-30.77-30.77c0-16.97,13.8-30.77,30.77-30.77C163.83,219.8,177.63,233.6,177.63,250.56z"/>
</g>
<g id="report" class="st0">
	<g class="st1">
		<path d="M248.37,310.4c-9.86,0-16.38,1.9-19.56,5.7c-3.19,3.8-4.78,10.01-4.78,18.63c0,8.83,1.59,15.1,4.78,18.79
			c3.18,3.7,9.7,5.54,19.56,5.54c9.85,0,16.32-1.85,19.4-5.54c3.08-3.7,4.62-9.96,4.62-18.79c0-8.62-1.53-14.83-4.62-18.63
			C264.69,312.3,258.22,310.4,248.37,310.4z"/>
		<path d="M224.96,160.55c-1.23,1.34-1.85,2.93-1.85,4.78l10.78,126.29h29.57l10.47-126.29c0-1.85-0.56-3.44-1.69-4.78
			c-1.13-1.33-3.74-2-7.85-2h-32.03C228.65,158.55,226.19,159.22,224.96,160.55z"/>
		<path d="M448.65,237.65L262.3,51.3c-3.19-3.19-7.51-4.98-12.02-4.98c-4.51,0-8.83,1.79-12.02,4.98L51.9,237.65
			c-6.64,6.64-6.64,17.4,0,24.04l186.35,186.35c3.19,3.19,7.51,4.98,12.02,4.98c4.51,0,8.83-1.79,12.02-4.98l186.35-186.35
			C455.29,255.05,455.29,244.29,448.65,237.65z M250.27,411.98L87.96,249.67L250.28,87.36l162.31,162.31L250.27,411.98z"/>
	</g>
</g>
</svg>
